{
  "accessors": [
    {
      "bufferView": 2,
      "componentType": 5126,
      "count": 593,
      "max": [
        3.2616665363311768,
        5.8687553405761719,
        1.4093631505966187
      ],
      "min": [
        -3.2616672515869141,
        -6.3169636726379395,
        -5.1139707565307617
      ],
      "type": "VEC3"
    },
    {
      "bufferView": 2,
      "byteOffset": 7116,
      "componentType": 5126,
      "count": 593,
      "max": [
        0.99707198143005371,
        1,
        0.99707192182540894
      ],
      "min": [
        -0.99707198143005371,
        -1,
        -0.99707198143005371
      ],
      "type": "VEC3"
    },
    {
      "bufferView": 1,
      "componentType": 5126,
      "count": 593,
      "max": [
        0.5688508152961731,
        0.53005480766296387
      ],
      "min": [
        0.4311491847038269,
        0.46994519233703613
      ],
      "type": "VEC2"
    },
    {
      "bufferView": 1,
      "byteOffset": 4744,
      "componentType": 5126,
      "count": 593,
      "max": [
        1,
        0.98477619886398315
      ],
      "min": [
        -0.092199981212615967,
        -0.092200040817260742
      ],
      "type": "VEC2"
    },
    {
      "bufferView": 0,
      "componentType": 5125,
      "count": 1914,
      "max": [
        592
      ],
      "min": [
        0
      ],
      "type": "SCALAR"
    },
    {
      "bufferView": 2,
      "byteOffset": 14232,
      "componentType": 5126,
      "count": 1134,
      "max": [
        3.643052339553833,
        8.1202163696289062,
        1.7907489538192749
      ],
      "min": [
        -3.6430528163909912,
        -7.8859786987304688,
        -5.4953560829162598
      ],
      "type": "VEC3"
    },
    {
      "bufferView": 2,
      "byteOffset": 27840,
      "componentType": 5126,
      "count": 1134,
      "max": [
        0.99600547552108765,
        1,
        0.9960053563117981
      ],
      "min": [
        -0.99600523710250854,
        -1,
        -0.99600541591644287
      ],
      "type": "VEC3"
    },
    {
      "bufferView": 1,
      "byteOffset": 9488,
      "componentType": 5126,
      "count": 1134,
      "max": [
        0.57782882452011108,
        0.53140318393707275
      ],
      "min": [
        0.4221712052822113,
        0.46859681606292725
      ],
      "type": "VEC2"
    },
    {
      "bufferView": 1,
      "byteOffset": 18560,
      "componentType": 5126,
      "count": 1134,
      "max": [
        1,
        1
      ],
      "min": [
        0,
        0.012292861938476562
      ],
      "type": "VEC2"
    },
    {
      "bufferView": 0,
      "byteOffset": 7656,
      "componentType": 5125,
      "count": 4404,
      "max": [
        1133
      ],
      "min": [
        0
      ],
      "type": "SCALAR"
    },
    {
      "bufferView": 2,
      "byteOffset": 41448,
      "componentType": 5126,
      "count": 246,
      "max": [
        0.12755779922008514,
        11.754559516906738,
        -2.1506452560424805
      ],
      "min": [
        -0.12755809724330902,
        -5.9571547508239746,
        -6.7995967864990234
      ],
      "type": "VEC3"
    },
    {
      "bufferView": 2,
      "byteOffset": 44400,
      "componentType": 5126,
      "count": 246,
      "max": [
        1,
        0.60745012760162354,
        0.99330222606658936
      ],
      "min": [
        -1,
        -0.60745006799697876,
        -0.99330312013626099
      ],
      "type": "VEC3"
    },
    {
      "bufferView": 1,
      "byteOffset": 27632,
      "componentType": 5126,
      "count": 246,
      "max": [
        0.5691981315612793,
        0.54314118623733521
      ],
      "min": [
        0.43078446388244629,
        0.45685887336730957
      ],
      "type": "VEC2"
    },
    {
      "bufferView": 1,
      "byteOffset": 29600,
      "componentType": 5126,
      "count": 246,
      "max": [
        1,
        1
      ],
      "min": [
        0,
        0
      ],
      "type": "VEC2"
    },
    {
      "bufferView": 0,
      "byteOffset": 25272,
      "componentType": 5125,
      "count": 1080,
      "max": [
        245
      ],
      "min": [
        0
      ],
      "type": "SCALAR"
    },
    {
      "bufferView": 2,
      "byteOffset": 47352,
      "componentType": 5126,
      "count": 54,
      "max": [
        0.31058433651924133,
        11.082099914550781,
        5.025146484375
      ],
      "min": [
        -0.31058463454246521,
        4.6898097991943359,
        -1.3205369710922241
      ],
      "type": "VEC3"
    },
    {
      "bufferView": 2,
      "byteOffset": 48000,
      "componentType": 5126,
      "count": 54,
      "max": [
        1,
        0.12648588418960571,
        0.12556478381156921
      ],
      "min": [
        -1,
        -0.12648633122444153,
        -0.12556439638137817
      ],
      "type": "VEC3"
    },
    {
      "bufferView": 1,
      "byteOffset": 31568,
      "componentType": 5126,
      "count": 54,
      "max": [
        0.98031997680664062,
        0.97681790590286255
      ],
      "min": [
        0.019680023193359375,
        0.023182153701782227
      ],
      "type": "VEC2"
    },
    {
      "bufferView": 1,
      "byteOffset": 32000,
      "componentType": 5126,
      "count": 54,
      "max": [
        0.51598072052001953,
        0.51586425304412842
      ],
      "min": [
        0.48401927947998047,
        0.48413586616516113
      ],
      "type": "VEC2"
    },
    {
      "bufferView": 0,
      "byteOffset": 29592,
      "componentType": 5125,
      "count": 156,
      "max": [
        53
      ],
      "min": [
        0
      ],
      "type": "SCALAR"
    },
    {
      "bufferView": 2,
      "byteOffset": 48648,
      "componentType": 5126,
      "count": 623,
      "max": [
        0.31058433651924133,
        11.213054656982422,
        5.155146598815918
      ],
      "min": [
        -0.31058463454246521,
        4.5588550567626953,
        -1.4505369663238525
      ],
      "type": "VEC3"
    },
    {
      "bufferView": 2,
      "byteOffset": 56124,
      "componentType": 5126,
      "count": 623,
      "max": [
        0.99196851253509521,
        1,
        0.99270892143249512
      ],
      "min": [
        -0.99196851253509521,
        -1,
        -0.99270892143249512
      ],
      "type": "VEC3"
    },
    {
      "bufferView": 1,
      "byteOffset": 32432,
      "componentType": 5126,
      "count": 623,
      "max": [
        0.51655185222625732,
        0.51643121242523193
      ],
      "min": [
        0.48344814777374268,
        0.48356890678405762
      ],
      "type": "VEC2"
    },
    {
      "bufferView": 1,
      "byteOffset": 37416,
      "componentType": 5126,
      "count": 623,
      "max": [
        1.2091213464736938,
        1.1560932397842407
      ],
      "min": [
        -0.20928287506103516,
        -0.080877780914306641
      ],
      "type": "VEC2"
    },
    {
      "bufferView": 1,
      "byteOffset": 42400,
      "componentType": 5126,
      "count": 623,
      "max": [
        0.51655185222625732,
        0.51643121242523193
      ],
      "min": [
        0.48344814777374268,
        0.48356890678405762
      ],
      "type": "VEC2"
    },
    {
      "bufferView": 0,
      "byteOffset": 30216,
      "componentType": 5125,
      "count": 1560,
      "max": [
        622
      ],
      "min": [
        0
      ],
      "type": "SCALAR"
    }
  ],
  "asset": {
    "extras": {
      "author": "tvdn164 (https://sketchfab.com/tvdn164)",
      "license": "CC-BY-4.0 (http://creativecommons.org/licenses/by/4.0/)",
      "source": "https://sketchfab.com/3d-models/orange-juice-7955c65e40b345b782d6a833f0c41acb",
      "title": "Orange Juice"
    },
    "generator": "Sketchfab-10.36.0",
    "version": "2.0"
  },
  "bufferViews": [
    {
      "buffer": 0,
      "byteLength": 36456,
      "byteOffset": 0,
      "name": "floatBufferViews",
      "target": 34963
    },
    {
      "buffer": 0,
      "byteLength": 47384,
      "byteOffset": 36456,
      "byteStride": 8,
      "name": "floatBufferViews",
      "target": 34962
    },
    {
      "buffer": 0,
      "byteLength": 63600,
      "byteOffset": 83840,
      "byteStride": 12,
      "name": "floatBufferViews",
      "target": 34962
    }
  ],
  "buffers": [
    {
      "byteLength": 147440,
      "uri": "scene.bin"
    }
  ],
  "images": [
    {
      "uri": "textures/Mat.1_baseColor.png"
    },
    {
      "uri": "textures/Mat.2_baseColor.jpeg"
    }
  ],
  "materials": [
    {
      "doubleSided": true,
      "name": "Sweep__1",
      "pbrMetallicRoughness": {
        "baseColorFactor": [
          1,
          1,
          1,
          1
        ],
        "metallicFactor": 0,
        "roughnessFactor": 0.59999999999999998
      }
    },
    {
      "alphaMode": "BLEND",
      "doubleSided": true,
      "emissiveFactor": [
        0,
        0,
        0
      ],
      "name": "material",
      "pbrMetallicRoughness": {
        "baseColorFactor": [
          0.66010729985589989,
          0.42554894102384039,
          0.11881931397406208,
          0.84077394524196047
        ],
        "metallicFactor": 0.2570773215621181,
        "roughnessFactor": 0.30571870686877162
      }
    },
    {
      "alphaMode": "BLEND",
      "doubleSided": true,
      "emissiveFactor": [
        0,
        0,
        0
      ],
      "name": "GLS0002_Glass",
      "pbrMetallicRoughness": {
        "baseColorFactor": [
          0.80000000000000004,
          0.80000000000000004,
          0.80000000000000004,
          0.48204372860539069
        ],
        "metallicFactor": 0,
        "roughnessFactor": 0.80404082057734572
      }
    },
    {
      "doubleSided": true,
      "name": "Mat.1",
      "pbrMetallicRoughness": {
        "baseColorFactor": [
          1,
          1,
          1,
          1
        ],
        "baseColorTexture": {
          "index": 0,
          "texCoord": 0
        },
        "metallicFactor": 0,
        "roughnessFactor": 0.11115316564215749
      }
    },
    {
      "doubleSided": true,
      "emissiveFactor": [
        0,
        0,
        0
      ],
      "name": "Mat.2",
      "pbrMetallicRoughness": {
        "baseColorFactor": [
          1,
          1,
          1,
          1
        ],
        "baseColorTexture": {
          "index": 1,
          "texCoord": 0
        },
        "metallicFactor": 0,
        "roughnessFactor": 0.95243171539989113
      }
    }
  ],
  "meshes": [
    {
      "name": "Sweep_Mat_1",
      "primitives": [
        {
          "attributes": {
            "NORMAL": 1,
            "POSITION": 0,
            "TEXCOORD_0": 2,
            "TEXCOORD_1": 3
          },
          "indices": 4,
          "material": 1,
          "mode": 4
        }
      ]
    },
    {
      "name": "Sweep_#GLS0002_Glass_1",
      "primitives": [
        {
          "attributes": {
            "NORMAL": 6,
            "POSITION": 5,
            "TEXCOORD_0": 7,
            "TEXCOORD_1": 8
          },
          "indices": 9,
          "material": 2,
          "mode": 4
        }
      ]
    },
    {
      "name": "Sweep__1",
      "primitives": [
        {
          "attributes": {
            "NORMAL": 11,
            "POSITION": 10,
            "TEXCOORD_0": 12,
            "TEXCOORD_1": 13
          },
          "indices": 14,
          "material": 0,
          "mode": 4
        }
      ]
    },
    {
      "name": "Sweep_Mat.1_1",
      "primitives": [
        {
          "attributes": {
            "NORMAL": 16,
            "POSITION": 15,
            "TEXCOORD_0": 17,
            "TEXCOORD_1": 18
          },
          "indices": 19,
          "material": 3,
          "mode": 4
        }
      ]
    },
    {
      "name": "Sweep_Mat.2_0",
      "primitives": [
        {
          "attributes": {
            "NORMAL": 21,
            "POSITION": 20,
            "TEXCOORD_0": 22,
            "TEXCOORD_1": 23,
            "TEXCOORD_2": 24
          },
          "indices": 25,
          "material": 4,
          "mode": 4
        }
      ]
    }
  ],
  "nodes": [
    {
      "children": [
        1
      ],
      "name": "RootNode (gltf orientation matrix)",
      "rotation": [
        -0.70710678118654746,
        -0,
        -0,
        0.70710678118654757
      ]
    },
    {
      "children": [
        2
      ],
      "name": "RootNode (model correction matrix)"
    },
    {
      "children": [
        3
      ],
      "matrix": [
        1,
        0,
        0,
        0,
        0,
        0,
        1,
        0,
        0,
        -1,
        0,
        0,
        0,
        0,
        0,
        1
      ],
      "name": "de6d10633ac249689574fcb80bc7ec2e.fbx"
    },
    {
      "children": [
        4,
        6
      ],
      "name": "RootNode"
    },
    {
      "children": [
        5
      ],
      "matrix": [
        -0.8537719333728524,
        -0.038428548308695597,
        -0.51922705289657967,
        0,
        -0.032833468410071613,
        0.99926135053592768,
        -0.019967891157520387,
        0,
        0.5196108631821954,
        -4.2847669856627135e-16,
        -0.85440303771876502,
        0,
        33.409229278564453,
        12.312111854553223,
        15.289034843444824,
        1
      ],
      "name": "CINEMA_4D_Editor"
    },
    {
      "name": ""
    },
    {
      "children": [
        7,
        8,
        9,
        10,
        11
      ],
      "matrix": [
        1,
        0,
        0,
        0,
        0,
        1,
        0,
        0,
        0,
        0,
        1,
        0,
        1.4915713109076023e-07,
        7.8859548568725586,
        1.8523037433624268,
        1
      ],
      "name": "Sweep"
    },
    {
      "mesh": 0,
      "name": "Sweep_Mat_1"
    },
    {
      "mesh": 1,
      "name": "Sweep_#GLS0002_Glass_1"
    },
    {
      "mesh": 2,
      "name": "Sweep__1"
    },
    {
      "mesh": 3,
      "name": "Sweep_Mat.1_1"
    },
    {
      "mesh": 4,
      "name": "Sweep_Mat.2_0"
    }
  ],
  "samplers": [
    {
      "magFilter": 9729,
      "minFilter": 9987,
      "wrapS": 10497,
      "wrapT": 10497
    }
  ],
  "scene": 0,
  "scenes": [
    {
      "name": "OSG_Scene",
      "nodes": [
        0
      ]
    }
  ],
  "textures": [
    {
      "sampler": 0,
      "source": 0
    },
    {
      "sampler": 0,
      "source": 1
    }
  ]
}

