{
  "accessors": [
    {
      "bufferView": 2,
      "componentType": 5126,
      "count": 84,
      "max": [
        -0.21278800070285797,
        0.54543697834014893,
        0.08740600198507309
      ],
      "min": [
        -0.45082199573516846,
        0.34970098733901978,
        -0.02752700075507164
      ],
      "type": "VEC3"
    },
    {
      "bufferView": 2,
      "byteOffset": 1008,
      "componentType": 5126,
      "count": 84,
      "max": [
        0.87322628498077393,
        0.59074985980987549,
        0.99449300765991211
      ],
      "min": [
        -0.79560315608978271,
        -0.99266564846038818,
        -0.69340181350708008
      ],
      "type": "VEC3"
    },
    {
      "bufferView": 1,
      "componentType": 5126,
      "count": 84,
      "max": [
        0.83928400278091431,
        0.96082401275634766
      ],
      "min": [
        0.21843099594116211,
        0.10954499989748001
      ],
      "type": "VEC2"
    },
    {
      "bufferView": 0,
      "componentType": 5125,
      "count": 129,
      "max": [
        83
      ],
      "min": [
        0
      ],
      "type": "SCALAR"
    },
    {
      "bufferView": 2,
      "byteOffset": 2016,
      "componentType": 5126,
      "count": 16973,
      "max": [
        1.0242840051651001,
        0.72658699750900269,
        0.46810901165008545
      ],
      "min": [
        -0.63727599382400513,
        -0.73047399520874023,
        -0.0088849999010562897
      ],
      "type": "VEC3"
    },
    {
      "bufferView": 2,
      "byteOffset": 205692,
      "componentType": 5126,
      "count": 16973,
      "max": [
        0.99982285499572754,
        0.9999573826789856,
        0.99970012903213501
      ],
      "min": [
        -0.99980622529983521,
        -0.99995911121368408,
        -0.98824977874755859
      ],
      "type": "VEC3"
    },
    {
      "bufferView": 1,
      "byteOffset": 672,
      "componentType": 5126,
      "count": 16973,
      "max": [
        0.99747598171234131,
        0.98463201522827148
      ],
      "min": [
        0.00016999999934341758,
        0.00016999999934341758
      ],
      "type": "VEC2"
    },
    {
      "bufferView": 0,
      "byteOffset": 516,
      "componentType": 5125,
      "count": 53970,
      "max": [
        16972
      ],
      "min": [
        0
      ],
      "type": "SCALAR"
    },
    {
      "bufferView": 2,
      "byteOffset": 409368,
      "componentType": 5126,
      "count": 3985,
      "max": [
        1.5411159992218018,
        0.77789098024368286,
        0.22302299737930298
      ],
      "min": [
        -1.5411159992218018,
        -0.77789098024368286,
        -0.022665999829769135
      ],
      "type": "VEC3"
    },
    {
      "bufferView": 2,
      "byteOffset": 457188,
      "componentType": 5126,
      "count": 3985,
      "max": [
        0.99899578094482422,
        0.99862825870513916,
        1
      ],
      "min": [
        -0.99899554252624512,
        -0.99862849712371826,
        -1
      ],
      "type": "VEC3"
    },
    {
      "bufferView": 1,
      "byteOffset": 136456,
      "componentType": 5126,
      "count": 3985,
      "max": [
        0.99069398641586304,
        0.98672902584075928
      ],
      "min": [
        0.00016999999934341758,
        0.066575996577739716
      ],
      "type": "VEC2"
    },
    {
      "bufferView": 0,
      "byteOffset": 216396,
      "componentType": 5125,
      "count": 21543,
      "max": [
        3984
      ],
      "min": [
        0
      ],
      "type": "SCALAR"
    }
  ],
  "asset": {
    "extras": {
      "author": "jjagdishwar (https://sketchfab.com/jjagdishwar)",
      "license": "CC-BY-4.0 (http://creativecommons.org/licenses/by/4.0/)",
      "source": "https://sketchfab.com/3d-models/chicken-meal-7481fbdc55104b7eaee2db7cf40f91c5",
      "title": "Chicken Meal"
    },
    "generator": "Sketchfab-10.8.0",
    "version": "2.0"
  },
  "bufferViews": [
    {
      "buffer": 0,
      "byteLength": 302568,
      "byteOffset": 0,
      "name": "floatBufferViews",
      "target": 34963
    },
    {
      "buffer": 0,
      "byteLength": 168336,
      "byteOffset": 302568,
      "byteStride": 8,
      "name": "floatBufferViews",
      "target": 34962
    },
    {
      "buffer": 0,
      "byteLength": 505008,
      "byteOffset": 470904,
      "byteStride": 12,
      "name": "floatBufferViews",
      "target": 34962
    }
  ],
  "buffers": [
    {
      "byteLength": 975912,
      "uri": "scene.bin"
    }
  ],
  "extensionsUsed": [
    "KHR_materials_unlit"
  ],
  "images": [
    {
      "uri": "textures/SimplygonMaterial_2SG_baseColor.jpeg"
    }
  ],
  "materials": [
    {
      "doubleSided": true,
      "extensions": {
        "KHR_materials_unlit": {}
      },
      "name": "SimplygonMaterial_2SG",
      "pbrMetallicRoughness": {
        "baseColorFactor": [
          1,
          1,
          1,
          1
        ],
        "baseColorTexture": {
          "index": 0,
          "texCoord": 0
        },
        "metallicFactor": 0,
        "roughnessFactor": 1
      }
    }
  ],
  "meshes": [
    {
      "primitives": [
        {
          "attributes": {
            "NORMAL": 1,
            "POSITION": 0,
            "TEXCOORD_0": 2
          },
          "indices": 3,
          "material": 0,
          "mode": 4
        }
      ]
    },
    {
      "primitives": [
        {
          "attributes": {
            "NORMAL": 5,
            "POSITION": 4,
            "TEXCOORD_0": 6
          },
          "indices": 7,
          "material": 0,
          "mode": 4
        }
      ]
    },
    {
      "primitives": [
        {
          "attributes": {
            "NORMAL": 9,
            "POSITION": 8,
            "TEXCOORD_0": 10
          },
          "indices": 11,
          "material": 0,
          "mode": 4
        }
      ]
    }
  ],
  "nodes": [
    {
      "children": [
        1
      ],
      "name": "RootNode (gltf orientation matrix)",
      "rotation": [
        -0.70710678118654746,
        -0,
        -0,
        0.70710678118654757
      ]
    },
    {
      "children": [
        2
      ],
      "matrix": [
        0.11986257135868073,
        0,
        0,
        0,
        0,
        0.11986257135868073,
        0,
        0,
        0,
        0,
        0.11986257135868073,
        0,
        0,
        0,
        0,
        1
      ],
      "name": "RootNode (model correction matrix)"
    },
    {
      "children": [
        3,
        4,
        5
      ],
      "name": "Ricechicken.obj.cleaner.materialmerger.gles"
    },
    {
      "mesh": 0,
      "name": ""
    },
    {
      "mesh": 1,
      "name": ""
    },
    {
      "mesh": 2,
      "name": ""
    }
  ],
  "samplers": [
    {
      "magFilter": 9729,
      "minFilter": 9987,
      "wrapS": 10497,
      "wrapT": 10497
    }
  ],
  "scene": 0,
  "scenes": [
    {
      "name": "OSG_Scene",
      "nodes": [
        0
      ]
    }
  ],
  "textures": [
    {
      "sampler": 0,
      "source": 0
    }
  ]
}

